<?xml version="1.0" encoding="UTF-8"?>
<svg width="10px" height="18px" viewBox="0 0 10 18" version="1.1" xmlns="http://www.w3.org/2000/svg" xmlns:xlink="http://www.w3.org/1999/xlink">
    <title>6E94C59B-198B-4DDA-AAA6-2EEA62AF18A2@3x</title>
    <g id="ðŸŒ-Tentang-kami" stroke="none" stroke-width="1" fill="none" fill-rule="evenodd">
        <g id="01-agree-tentang-kami" transform="translate(-1206.000000, -2892.000000)" fill="#333333" fill-rule="nonzero">
            <g id="cara" transform="translate(-1.000000, 2671.000000)">
                <g id="button/prev" transform="translate(1212.000000, 230.000000) rotate(-270.000000) translate(-1212.000000, -230.000000) translate(1189.000000, 207.000000)">
                    <g id="ic/arrow/next/dark" transform="translate(23.040000, 22.960000) rotate(-270.000000) translate(-23.040000, -22.960000) translate(18.040000, 13.960000)">
                        <path d="M9.39020684,8.39382867 L2.42139501,1.02455395 C2.2602149,0.85397387 2.04505345,0.76 1.81563279,0.76 C1.58621212,0.76 1.37105068,0.85397387 1.20987057,1.02455395 L0.69666596,1.56712515 C0.36272012,1.92067154 0.36272012,2.4952854 0.69666596,2.84829327 L6.548548,9.03656686 L0.690172922,15.2317067 C0.528992811,15.4022868 0.44,15.629682 0.44,15.8721562 C0.44,16.1148996 0.528992811,16.3422948 0.690172922,16.5130095 L1.20337753,17.0554461 C1.36468495,17.2260261 1.57971908,17.32 1.80913975,17.32 C2.03856041,17.32 2.25372186,17.2260261 2.41490197,17.0554461 L9.39020684,9.67943968 C9.5517689,9.50832107 9.64050708,9.27984878 9.64,9.03697076 C9.64050708,8.7931503 9.5517689,8.56481264 9.39020684,8.39382867 Z" id="Path"></path>
                    </g>
                </g>
            </g>
        </g>
    </g>
</svg>