<svg width="13" height="13" viewBox="0 0 13 13" fill="none" xmlns="http://www.w3.org/2000/svg">
<path d="M12.1546 10.1623L8.23685 6.2465L12.1517 2.32874C12.6036 1.87874 12.6036 1.155 12.1536 0.703128L11.7899 0.338448C11.5761 0.119074 11.2836 0 10.9761 0H10.9742C10.6667 0 10.378 0.120938 10.1624 0.337488L6.24557 4.25717L2.32781 0.342288C1.87874 -0.107712 1.15594 -0.109584 0.704064 0.340413L0.339384 0.701349C0.120009 0.916975 0 1.20948 0 1.51603C0 1.82448 0.120938 2.11416 0.337488 2.33071L4.25717 6.24751L0.341328 10.1653C-0.110544 10.6153 -0.110544 11.339 0.339453 11.7918L0.703197 12.1556C0.918822 12.3749 1.21039 12.494 1.51788 12.494C1.82349 12.494 2.116 12.3721 2.33162 12.1565L6.24746 8.23781L10.1643 12.152C10.3864 12.376 10.6817 12.4895 10.978 12.4895C11.2715 12.4895 11.5649 12.3779 11.7899 12.1538L12.1536 11.791C12.3739 11.5773 12.493 11.2848 12.493 10.9773C12.4949 10.6698 12.3739 10.3792 12.1574 10.1626L12.1546 10.1623Z" fill="#424242"/>
</svg>
