<?xml version="1.0" encoding="UTF-8"?>
<svg width="20px" height="22px" viewBox="0 0 20 22" version="1.1" xmlns="http://www.w3.org/2000/svg" xmlns:xlink="http://www.w3.org/1999/xlink">
    <title>438FB154-00FF-4514-BD6B-4C9C1A736D16@3x</title>
    <g id="agree-blog-profile" stroke="none" stroke-width="1" fill="none" fill-rule="evenodd">
        <g id="001-agreeblog-profile-artikel" transform="translate(-1275.000000, -488.000000)" fill="#333333" fill-rule="nonzero">
            <g id="list/artikel" transform="translate(65.000000, 453.000000)">
                <g id="hapus" transform="translate(1208.000000, 34.000000)">
                    <g id="ic/delete">
                        <path d="M13.5384633,1 C14.8129627,1 15.8461469,2.05532644 15.8461469,3.35713972 L15.8461469,3.35713972 L15.8461469,4.14286831 L21.230712,4.14286831 C21.6555602,4.14286831 22,4.49459775 22,4.92855086 C22,5.36250396 21.6556053,5.71427945 21.2307571,5.71427945 L21.2307571,5.71427945 L20.3945824,5.71427945 L18.9230735,22.2857543 C18.8867455,22.6915783 18.5527623,23.0016895 18.1538306,23 L18.1538306,23 L5.84616945,23 C5.44723765,23.0016435 5.11320946,22.6915323 5.07692654,22.2857543 L5.07692654,22.2857543 L3.60537258,5.71427945 L2.7692429,5.71427945 C2.34443981,5.71427945 2,5.36255 2,4.9285969 C2,4.49464379 2.34439474,4.14286831 2.7692429,4.14286831 L2.7692429,4.14286831 L8.15385309,4.14286831 L8.15385309,3.35713972 C8.15385309,2.05532644 9.18703731,1 10.4615367,1 L10.4615367,1 Z M18.8499668,5.71427945 L5.15386436,5.71427945 L6.54848051,21.4285289 L17.4515195,21.4285289 L18.8499668,5.71427945 Z M8.09922589,7.28573662 C8.52402898,7.25493727 8.89289779,7.58171418 8.92305092,8.01566729 L8.92305092,8.01566729 L9.69229382,19.0156373 L9.69229382,19.0156373 L9.69275584,19.1257172 C9.66799066,19.5119069 9.3669833,19.8295605 8.97848941,19.8571204 L8.97848941,19.8571204 L8.92309599,19.8571204 C8.51871049,19.8581767 8.18256392,19.5391801 8.15385309,19.1271871 L8.15385309,19.1271871 L7.38461018,8.12721708 C7.35445705,7.69331002 7.67437773,7.31653596 8.09922589,7.28573662 Z M11.9999775,7.28569058 C12.4248256,7.28569058 12.7692204,7.63746606 12.7692204,8.07141917 L12.7692204,8.07141917 L12.7692204,19.0713892 C12.7692204,19.5053423 12.4248256,19.8571178 11.9999775,19.8571178 C11.5751293,19.8571178 11.2307346,19.5053423 11.2307346,19.0713892 L11.2307346,19.0713892 L11.2307346,8.07141917 C11.2307346,7.63746606 11.5751293,7.28569058 11.9999775,7.28569058 Z M15.900729,7.28569058 C16.3255772,7.31653596 16.6455429,7.69326398 16.6153898,8.12717105 L16.6153898,8.12717105 L15.8461469,19.1271411 C15.8174361,19.5391341 15.4812895,19.8581306 15.076904,19.8570744 L15.076904,19.8570744 L15.0222768,19.8570744 C15.0209697,19.8570744 15.0197077,19.8568876 15.0184006,19.8567955 C14.5947243,19.8249833 14.2765164,19.4483474 14.3076611,19.0155913 L14.3076611,19.0155913 L15.076904,8.01562125 C15.1070571,7.58166814 15.4758809,7.25489124 15.900729,7.28569058 Z M13.5384633,2.57141114 L10.4615367,2.57141114 C10.0366886,2.57141114 9.69229382,2.92318662 9.69229382,3.35713972 L9.69229382,3.35713972 L9.69229382,4.14286831 L14.3077062,4.14286831 L14.3077062,3.35713972 C14.3077062,2.92318662 13.9633114,2.57141114 13.5384633,2.57141114 L13.5384633,2.57141114 Z"></path>
                    </g>
                </g>
            </g>
        </g>
    </g>
</svg>