<?xml version="1.0" encoding="UTF-8"?>
<svg width="20px" height="20px" viewBox="0 0 20 20" version="1.1" xmlns="http://www.w3.org/2000/svg" xmlns:xlink="http://www.w3.org/1999/xlink">
    <title>C767E7A1-FF3D-4598-9E49-A0BA5253DB3F@3x</title>
    <g id="agree-blog-profile" stroke="none" stroke-width="1" fill="none" fill-rule="evenodd">
        <g id="001-agreeblog-profile-artikel" transform="translate(-1174.000000, -489.000000)" fill="#333333" fill-rule="nonzero">
            <g id="list/artikel" transform="translate(65.000000, 453.000000)">
                <g id="edit" transform="translate(1107.000000, 34.000000)">
                    <g id="ic/edit">
                        <path d="M12.7141381,3.42858035 C13.108636,3.42858035 13.4284279,3.7483349 13.4284279,4.14283835 C13.4284279,4.53734181 13.108636,4.85713821 12.7141381,4.85713821 L12.7141381,4.85713821 L4.14282762,4.85713821 C3.74832971,4.85713821 3.4285378,5.17693461 3.4285378,5.57143807 L3.4285378,5.57143807 L3.4285378,19.8571423 C3.4285378,20.2516457 3.74832971,20.5714421 4.14282762,20.5714421 L4.14282762,20.5714421 L16.9997515,20.5714421 C17.3942494,20.5714421 17.7140413,20.2516457 17.7140413,19.8571423 L17.7140413,19.8571423 L17.7140413,12.7143111 C17.7140413,12.3198076 18.0338332,12.0000112 18.4283311,12.0000112 C18.8228291,12.0000112 19.142621,12.3198076 19.142621,12.7142692 L19.142621,12.7142692 L19.142621,19.8571423 C19.142621,21.0406108 18.1832452,22 16.9997933,22 L16.9997933,22 L4.14282762,22 C2.95937573,22 2,21.0406108 2,19.8571423 L2,19.8571423 L2,5.57143807 C2,4.38796956 2.95937573,3.42858035 4.14282762,3.42858035 L4.14282762,3.42858035 Z M19.2654987,2.00001118 C19.9908375,2.00001118 20.6864613,2.28805269 21.199317,2.80099926 C22.2670059,3.86887064 22.2668804,5.60014901 21.199024,6.66789484 L21.199024,6.66789484 L11.7905878,16.0764632 C11.7121988,16.1549789 11.6165667,16.2141586 11.5113087,16.2493148 L11.5113087,16.2493148 L7.22565345,17.6778727 C7.1528308,17.7018543 7.07661812,17.7142846 6.99994507,17.7142846 C6.92343942,17.7142846 6.84739416,17.7018543 6.77478076,17.6776634 C6.40049741,17.5530261 6.1981425,17.1485617 6.32281991,16.7742731 L6.32281991,16.7742731 L7.75135771,12.4885577 C7.78655532,12.3835074 7.84544123,12.2879159 7.9234954,12.2092747 L7.9234954,12.2092747 L17.3319735,2.80145964 C17.8434062,2.286546 18.5397414,1.99792985 19.2654987,2.00001118 Z M20.1894676,3.81613625 C19.6797927,3.30544973 18.8525859,3.30461268 18.3419066,3.81429474 L18.3419066,3.81429474 L9.05274882,13.0999836 L8.12919848,15.8707154 L10.9034488,14.9443061 L20.1890491,5.65857537 C20.4344698,5.41398825 20.5720377,5.08151048 20.571163,4.73501206 C20.5701125,4.39035516 20.4329213,4.06009558 20.1894676,3.81613625 Z"></path>
                    </g>
                </g>
            </g>
        </g>
    </g>
</svg>