<?xml version="1.0" standalone="no"?>
<!DOCTYPE svg PUBLIC "-//W3C//DTD SVG 20010904//EN"
 "http://www.w3.org/TR/2001/REC-SVG-20010904/DTD/svg10.dtd">
<svg version="1.0" xmlns="http://www.w3.org/2000/svg"
 width="512.000000pt" height="512.000000pt" viewBox="0 0 512.000000 512.000000"
 preserveAspectRatio="xMidYMid meet">
<metadata>
Created by potrace 1.16, written by Peter Selinger 2001-2019
</metadata>
<g transform="translate(0.000000,512.000000) scale(0.100000,-0.100000)"
fill="#000000" stroke="none">
<path d="M4 4663 c4 -10 158 -310 342 -668 387 -751 463 -876 628 -1041 86
-86 115 -108 186 -142 152 -72 172 -74 648 -79 l424 -5 -252 497 -252 496 528
-4 c434 -3 545 -6 619 -20 297 -54 532 -174 697 -357 115 -126 217 -299 299
-502 l43 -108 603 0 c541 0 603 2 603 16 0 8 -11 59 -25 112 -214 842 -828
1543 -1535 1755 -220 66 -85 61 -1909 64 -1579 3 -1653 3 -1647 -14z"/>
<path d="M1405 2376 c-278 -38 -441 -163 -660 -509 -58 -91 -716 -1343 -741
-1409 -6 -17 76 -18 1624 -18 1590 0 1632 0 1746 20 776 135 1486 877 1721
1802 14 53 25 104 25 112 0 14 -54 16 -522 15 -288 -1 -561 -4 -606 -7 l-84
-7 -33 -85 c-80 -209 -193 -396 -315 -524 -94 -99 -167 -155 -273 -211 -180
-95 -369 -140 -647 -155 -184 -10 -910 -14 -910 -5 0 9 99 205 306 606 107
206 194 378 194 382 0 12 -729 6 -825 -7z"/>
</g>
</svg>
